<?xml version="1.0" standalone="no"?>
<!DOCTYPE svg PUBLIC "-//W3C//DTD SVG 20010904//EN"
 "http://www.w3.org/TR/2001/REC-SVG-20010904/DTD/svg10.dtd">
<svg version="1.0" xmlns="http://www.w3.org/2000/svg"
 width="400.000000pt" height="400.000000pt" viewBox="0 0 400.000000 400.000000"
 preserveAspectRatio="xMidYMid meet">
<metadata>
Created by potrace 1.11, written by Peter Selinger 2001-2013
</metadata>
<g transform="translate(0.000000,400.000000) scale(0.100000,-0.100000)"
fill="#000000" stroke="none">
<path d="M0 2000 l0 -2000 2000 0 2000 0 0 2000 0 2000 -2000 0 -2000 0 0
-2000z m1230 661 c0 -20 -25 -31 -71 -31 -15 0 -38 -9 -53 -21 -49 -39 -53
-25 189 -646 54 -139 101 -253 104 -253 3 0 69 161 145 358 76 196 161 414
188 483 l49 126 41 -3 c23 -2 42 -5 43 -6 1 -2 16 -39 33 -83 33 -85 132 -337
255 -650 41 -104 78 -201 82 -214 4 -12 11 -19 15 -15 8 8 166 419 327 850
l45 121 41 -1 41 -1 123 -310 c68 -170 164 -416 214 -545 118 -305 152 -375
201 -410 21 -15 54 -31 73 -34 26 -5 35 -12 35 -26 0 -19 -9 -20 -290 -20
-282 0 -290 1 -290 20 0 16 9 21 50 26 28 4 62 16 76 27 23 18 26 26 21 66 -2
25 -48 156 -101 291 -54 135 -125 314 -158 398 -33 84 -63 150 -66 147 -3 -3
-90 -222 -193 -487 l-187 -483 -39 4 c-21 1 -41 6 -45 9 -4 4 -28 61 -53 127
-26 66 -98 248 -159 405 -62 157 -126 318 -141 358 -15 39 -31 72 -34 72 -3 0
-87 -217 -186 -483 l-181 -482 -48 0 -49 0 -103 275 c-321 850 -357 936 -409
975 -16 13 -49 28 -72 34 -32 9 -43 17 -43 31 0 19 9 20 290 20 277 0 290 -1
290 -19z"/>
</g>
</svg>
